<svg width="107" height="20" viewBox="0 0 107 20" fill="none" xmlns="http://www.w3.org/2000/svg">
<path fill-rule="evenodd" clip-rule="evenodd" d="M87.5639 14.151C86.6825 13.4324 86.6233 12.0779 87.4772 11.4184C86.924 10.728 86.8554 10.1047 86.8554 9.33965C86.8554 7.78999 88.1061 6.9998 88.9046 6.79361C89.8757 6.52023 92.0466 6.54724 93.4115 6.56422C93.6854 6.56763 93.9269 6.57063 94.1197 6.57072C94.5129 6.57086 94.6719 6.73164 94.6721 7.1264C94.6721 7.31737 94.6711 7.50821 94.6695 7.69918C94.6682 7.83246 94.6095 7.92567 94.4819 7.97602C94.3526 8.02708 94.224 8.08029 94.0903 8.13563L94.0903 8.13564L94.0903 8.13565C94.032 8.15976 93.9728 8.18427 93.9121 8.20919C94.2219 8.72481 94.3659 9.25952 94.266 10.0091C94.0665 11.507 93.0326 12.0041 92.4468 12.1771C91.3583 12.4987 90.2552 12.5262 89.1483 12.2604C88.9479 12.2161 88.7488 12.2027 88.6479 12.4124C88.5582 12.5987 88.5113 12.8369 88.7844 12.9497C89.7044 13.3739 91.0863 13.666 92.4094 13.9C94.0998 14.2002 94.3828 14.9514 94.4819 15.8012C94.585 16.6856 94.3828 17.7391 92.9849 18.2845C91.7689 18.699 89.7794 18.7491 88.3901 18.2632C86.44 17.5591 86.3413 15.2018 87.5639 14.151ZM92.1603 10.1735C92.2794 9.86769 92.2786 9.54451 92.2354 9.2224C92.1644 8.69062 91.855 8.37278 91.3441 8.24738C90.8834 8.134 90.4161 8.13347 89.9528 8.22001C89.5235 8.30027 89.1424 8.48496 88.9987 8.93314C88.7054 9.83764 89.0384 10.5166 89.6178 10.7122C90.2594 10.9172 91.7688 11.0174 92.1603 10.1735ZM91.9519 15.5123C92.424 15.7168 92.5269 15.9427 92.3869 16.4495C92.1852 17.18 90.3315 17.1605 89.3944 16.8795C88.9818 16.722 88.8113 16.4631 88.7944 16.0252C88.7788 15.4038 88.9977 15.0127 89.2252 14.831C89.2528 14.809 89.2886 14.8027 89.323 14.8113C89.4816 14.8508 89.661 14.8947 89.8502 14.941C90.6599 15.139 91.6482 15.3807 91.9519 15.5123Z" fill="#110B3E"/>
<path fill-rule="evenodd" clip-rule="evenodd" d="M83.3343 15.2038C84.5041 14.6565 85.315 13.5436 85.315 11.686C85.315 11.6575 85.315 11.6192 85.3151 11.5727C85.3159 11.1584 85.3178 10.1014 85.2815 9.74727C85.2116 9.06699 84.9148 7.77895 83.6338 6.98061C82.8727 6.50626 80.9079 6.05394 79.2357 7.16931C78.3691 7.82689 77.9653 8.73981 77.87 9.79335C77.8314 10.2211 77.8316 10.6524 77.8317 11.0836C77.8318 11.2471 77.8319 11.4105 77.8298 11.5738C77.8298 13.3879 78.5327 14.5341 79.8169 15.2005C80.8525 15.7026 82.3759 15.6521 83.3343 15.2038ZM82.8091 8.82127C83.1263 9.23459 83.2257 9.72324 83.2435 10.2315C83.2529 10.4983 83.2353 12.0071 83.1403 12.4783C83.0238 13.0561 82.7025 13.5194 82.1034 13.6899C81.5005 13.8618 80.9233 13.7946 80.4533 13.3327C80.1567 13.041 79.9895 12.6622 79.9606 12.2555C79.8423 11.3401 79.809 9.94906 80.1123 9.21603C80.3416 8.67798 80.7371 8.34224 81.3222 8.27534C81.9023 8.20896 82.4313 8.32929 82.8091 8.82127Z" fill="#110B3E"/>
<path fill-rule="evenodd" clip-rule="evenodd" d="M70.4842 15.2038C71.6541 14.6565 72.4649 13.5436 72.4649 11.686C72.4649 11.6575 72.4649 11.6192 72.465 11.5727C72.4658 11.1584 72.4677 10.1014 72.4314 9.74727C72.3616 9.06699 72.0648 7.77895 70.7837 6.98061C70.0227 6.50626 68.0579 6.05394 66.3856 7.16931C65.519 7.82689 65.1152 8.73981 65.02 9.79335C64.9813 10.2216 64.9815 10.6535 64.9817 11.0853C64.9818 11.2482 64.9819 11.4111 64.9799 11.5738C64.9799 13.3879 65.6826 14.5341 66.9668 15.2005C68.0024 15.7026 69.5259 15.6521 70.4842 15.2038ZM69.959 8.82127C70.2763 9.23459 70.3756 9.72324 70.3935 10.2315C70.4028 10.4983 70.3852 12.0071 70.2903 12.4783C70.1737 13.0561 69.8525 13.5194 69.2534 13.6899C68.6504 13.8618 68.0733 13.7946 67.6033 13.3327C67.3066 13.041 67.1395 12.6622 67.1106 12.2555C66.9924 11.3401 66.9591 9.94906 67.2623 9.21603C67.4915 8.67798 67.8871 8.34224 68.4722 8.27534C69.0523 8.20896 69.5813 8.32929 69.959 8.82127Z" fill="#110B3E"/>
<path fill-rule="evenodd" clip-rule="evenodd" d="M104.676 10.0761C104.676 10.1224 104.639 10.1603 104.593 10.1604C104.535 10.1606 104.477 10.1606 104.419 10.1607C103.253 10.1627 102.21 10.1644 101.346 10.5217C100.652 10.8092 100.163 11.2841 99.9721 12.0247C99.8157 12.6317 99.8288 13.2453 99.9814 13.8524C100.181 14.6462 100.678 15.1669 101.458 15.4021C102.828 15.8027 104.282 15.3353 104.786 14.8874C104.787 14.9019 104.788 14.915 104.788 14.9273C104.79 14.9521 104.791 14.9732 104.791 14.9944C104.796 15.3572 104.893 15.4407 105.276 15.4349L106.184 15.4332C106.639 15.4493 106.75 15.3708 106.75 14.9582C106.75 14.5124 106.756 13.9528 106.763 13.3513C106.782 11.5396 106.805 9.34841 106.683 8.74604C106.554 7.97147 106.178 7.35329 105.485 6.95239C104.65 6.38869 102.956 6.32125 100.755 6.70159C100.543 6.73805 100.387 6.92181 100.387 7.13748L100.387 7.13763C100.386 7.42123 100.386 7.7047 100.387 7.9883C100.388 8.24925 100.476 8.33685 100.732 8.32029C101.574 8.20171 103.266 8.20798 103.823 8.2431C104.186 8.26594 104.472 8.46706 104.589 8.83364C104.688 9.14712 104.683 9.46866 104.678 9.79736C104.677 9.88973 104.675 9.98267 104.676 10.0761ZM104.578 11.5485C104.633 11.5489 104.677 11.5936 104.677 11.6485V13.11L104.677 13.1217C104.677 13.4812 104.677 13.4912 104.345 13.6305C103.801 13.8586 103.161 13.9554 102.646 13.8714C102.219 13.7998 102.014 13.6088 101.973 13.1824C101.948 12.9205 101.964 12.6482 102.006 12.388C102.074 11.9708 102.366 11.7441 102.756 11.6441C103.158 11.5369 103.93 11.5432 104.438 11.5474C104.488 11.5478 104.535 11.5482 104.578 11.5485Z" fill="#110B3E"/>
<path fill-rule="evenodd" clip-rule="evenodd" d="M74.1385 3.77131C74.1561 3.60104 74.2636 3.49019 74.4361 3.48832C74.9254 3.48285 75.4149 3.48512 75.9044 3.48645C76.0564 3.48699 76.1467 3.57326 76.1806 3.71548C76.1967 3.78319 76.1122 9.09216 76.199 14.9671C76.199 15.346 76.1087 15.4352 75.726 15.4352C75.3454 15.4352 74.9647 15.4353 74.5841 15.4352C74.2342 15.435 74.1323 15.3323 74.1321 14.9759C74.1316 13.6892 74.1317 3.83608 74.1385 3.77131Z" fill="#110B3E"/>
<path fill-rule="evenodd" clip-rule="evenodd" d="M98.1944 14.9912C98.1944 15.3278 98.0889 15.4349 97.7586 15.4351C97.3507 15.4352 96.9428 15.4357 96.535 15.4348C96.2481 15.4343 96.1311 15.3197 96.1303 15.0284C96.1282 14.2324 96.1296 8.91043 96.1296 7.04547C96.1296 6.65979 96.2204 6.57059 96.6118 6.57045C96.998 6.57045 97.3841 6.56978 97.7702 6.57072C98.0796 6.57152 98.1944 6.68584 98.1944 6.99179C98.0423 11.2455 98.1947 13.6606 98.1944 14.9912Z" fill="#110B3E"/>
<path fill-rule="evenodd" clip-rule="evenodd" d="M97.923 3.38968C98.1798 3.39195 98.2917 3.49812 98.2945 3.7572C98.2991 4.18254 98.2997 4.60802 98.2942 5.03349C98.291 5.28069 98.1766 5.39113 97.9328 5.3926C97.4596 5.3954 96.9864 5.39567 96.5131 5.3926C96.2592 5.39086 96.1334 5.26479 96.1316 5.00999C96.1282 4.59546 96.1285 4.18094 96.1314 3.76641C96.1332 3.52323 96.2626 3.39329 96.5032 3.39008C96.7425 3.38688 97.6891 3.38755 97.923 3.38968Z" fill="#110B3E"/>
<path fill-rule="evenodd" clip-rule="evenodd" d="M61.2586 3.77397C61.2463 3.84315 61.2398 6.52367 61.2398 6.59311C61.1802 6.58835 61.1206 6.5835 61.061 6.57866C59.8035 6.47631 58.5647 6.37548 57.3473 7.1743C55.409 8.3909 55.9774 12.4473 56.2017 13.2142C56.6577 14.8011 58.2558 15.5858 59.5186 15.5858C60.6592 15.611 61.7814 15.4604 62.8867 15.181C63.2629 15.0861 63.316 15.0164 63.316 14.6297C63.316 11.079 63.3105 3.83607 63.2964 3.76756C63.2639 3.60864 63.1616 3.52063 62.9999 3.5197C62.5159 3.51676 62.0316 3.51623 61.5476 3.52077C61.3864 3.52224 61.2871 3.61425 61.2586 3.77397ZM61.2276 8.42736V13.7071C61.2276 13.759 61.1904 13.8032 61.1391 13.8107C60.2441 13.9433 58.6421 14.0711 58.236 12.8875C58.1413 12.5854 57.5069 10.4609 58.3806 8.87273C58.9114 7.91909 60.3906 8.09764 61.0748 8.23959C61.1638 8.25802 61.2276 8.33601 61.2276 8.42736Z" fill="#110B3E"/>
<path fill-rule="evenodd" clip-rule="evenodd" d="M24.8554 13.2308C24.8554 14.4138 25.9278 15.2412 26.9912 15.3725C28.0547 15.5038 29.3249 15.5038 31.4432 15.3725C31.7052 15.3255 31.7651 15.257 31.7683 14.9931C31.7715 14.7303 31.7704 14.4674 31.7692 14.2046L31.769 14.1424C31.7678 13.8398 31.6582 13.728 31.3587 13.7278C31.1984 13.7276 30.9878 13.7374 30.7459 13.7485C29.3846 13.8115 27.0296 13.9205 27.0275 12.5733L27.0272 12.4264C27.0261 11.6696 27.0249 10.885 27.0267 10.5066C27.0271 10.4197 27.0989 10.3485 27.1856 10.3485L27.4621 10.3486C28.2185 10.3487 30.2327 10.3491 31.1402 10.3481C31.5212 10.3477 31.6005 10.2138 31.5731 9.75945C31.562 9.5761 31.5628 9.39127 31.5728 9.20778C31.5997 8.7166 31.5336 8.59093 31.1375 8.5908C30.005 8.59067 27.7936 8.59067 27.1857 8.5908C27.0986 8.5908 27.0289 8.51989 27.0289 8.43268L27.0275 6.69791C27.0296 5.35065 29.3846 5.45963 30.7459 5.52262C30.9878 5.53381 31.1984 5.54356 31.3587 5.54341C31.6582 5.54315 31.7678 5.43137 31.769 5.12875L31.7692 5.06657C31.7704 4.80376 31.7715 4.54086 31.7683 4.27807C31.7651 4.01418 31.7052 3.94568 31.4432 3.89867C29.3249 3.76734 28.0547 3.76734 26.9912 3.89867C25.9278 4.03 24.8554 4.85739 24.8554 6.04034V13.2308Z" fill="#110B3E"/>
<path fill-rule="evenodd" clip-rule="evenodd" d="M52.2154 14.8314C51.843 15.0124 51.5048 15.2163 51.1404 15.3461C50.2933 15.6479 49.4285 15.6753 48.5709 15.3793C47.9176 15.1538 47.5212 14.6712 47.3011 14.0292C46.9066 12.809 47.0405 8.79703 47.0403 7.00859C47.0402 6.73656 47.1711 6.60635 47.4399 6.60435C47.8696 6.60088 48.2993 6.60088 48.7288 6.60435C48.9714 6.60622 49.0967 6.73001 49.1142 6.97253C49.1176 7.02141 48.9933 11.9076 49.1919 13.0351C49.2974 13.5102 49.6469 13.7863 50.1343 13.8354C50.6692 13.8891 51.5018 13.6159 52.0351 13.3178C52.1676 13.2437 52.2197 13.1762 52.2191 13.0227C52.2134 11.0542 52.2134 7.00792 52.2169 6.9537C52.2306 6.73696 52.3498 6.60862 52.566 6.60542C53.0173 6.59901 53.4689 6.59834 53.9201 6.60555C54.1683 6.60969 54.2821 6.75138 54.2823 7.02822C54.2827 8.44607 54.2211 11.9743 54.2823 15.0441C54.2823 15.3602 54.176 15.4675 53.8637 15.4678C53.4557 15.4682 53.0478 15.4682 52.64 15.4678C52.3204 15.4675 52.2182 15.3668 52.2154 15.0508C52.2149 14.9762 52.2154 14.9014 52.2154 14.8314Z" fill="#110B3E"/>
<path fill-rule="evenodd" clip-rule="evenodd" d="M33.223 15.3026C32.9237 15.2365 32.8283 15.1273 32.8278 14.8213C32.8272 14.5704 32.8271 14.3196 32.8278 14.0688C32.8284 13.8081 32.9234 13.713 33.1875 13.7317C34.8129 13.8953 35.7147 13.8905 36.2435 13.8531C36.794 13.8141 36.9754 13.4403 36.8728 12.9816C36.7099 12.2415 34.1043 11.2789 33.3616 10.4294C32.5957 9.59356 32.5373 8.15714 33.264 7.30859C34.0461 6.3878 35.7921 6.48676 36.3785 6.51053C37.0686 6.53857 37.7502 6.63739 38.4237 6.79271C38.7127 6.85935 38.798 6.95697 38.7993 7.25144C38.8004 7.51319 38.802 7.77493 38.7988 8.03668C38.7953 8.31593 38.6918 8.39165 38.4111 8.37228C37.2427 8.14058 35.7997 7.92357 35.1152 8.33422C34.8009 8.52279 34.7146 8.92716 34.9856 9.17382C35.9828 10.038 38.9791 10.7614 38.9791 13.1151C38.9791 14.5508 38.0071 15.2811 36.9082 15.4927C36.0939 15.6859 34.4531 15.5975 33.223 15.3026Z" fill="#110B3E"/>
<path fill-rule="evenodd" clip-rule="evenodd" d="M43.8869 8.16709C43.8573 8.16709 43.834 8.19046 43.8339 8.22011C43.8299 8.73359 43.7973 12.7474 43.8616 13.5765C43.8865 13.8577 43.995 13.9579 44.2817 13.9647C44.5696 13.9716 45.3203 13.9791 45.4053 13.9943C45.5236 14.0154 45.6032 14.0814 45.6032 14.2134C45.6032 14.2134 45.6023 14.8786 45.6017 15.2109C45.6016 15.3461 45.5237 15.4353 45.4044 15.4584C44.5477 15.5699 43.4827 15.6693 42.861 15.48C42.2468 15.2932 41.9469 14.7613 41.8483 14.1605C41.7031 13.4676 41.7438 8.73987 41.7481 8.21196C41.7484 8.18419 41.7274 8.16188 41.6999 8.15881C41.3692 8.12115 40.4804 8.11127 40.278 8.07388C40.0575 8.03301 39.971 7.92631 39.9673 7.70382C39.964 7.50765 39.9661 7.17672 39.97 6.98054C39.9749 6.72106 40.0916 6.60595 40.3544 6.60408C40.7292 6.60154 41.4853 6.60034 41.6957 6.59793C41.7253 6.59767 41.7484 6.57363 41.7484 6.54412C41.7481 6.34967 41.7473 5.70452 41.749 5.40778C41.7504 5.16619 41.8484 5.0432 42.0837 5.00073C42.5321 4.91994 42.9809 4.84181 43.4306 4.76956C43.7454 4.71895 43.834 4.80028 43.8341 5.11972C43.8343 5.50887 43.838 6.32951 43.8412 6.55106C43.8416 6.58057 43.8658 6.60328 43.8953 6.60328H45.0718C45.474 6.60341 45.5613 6.69048 45.5613 7.09192C45.5613 7.32095 45.5628 7.54998 45.5609 7.77901C45.5586 8.04143 45.4335 8.16536 45.1682 8.16656C44.8296 8.16816 44.0977 8.16736 43.8869 8.16709Z" fill="#110B3E"/>
<path fill-rule="evenodd" clip-rule="evenodd" d="M10.1328 5.14771V5.69939L9.65851 5.42277L10.1328 5.14771Z" fill="white"/>
<path fill-rule="evenodd" clip-rule="evenodd" d="M6.87293 16.7439C7.05543 16.7258 7.23494 16.6692 7.39892 16.5739L8.60364 15.875L8.60345 15.9279C8.6031 16.0076 8.62443 16.0721 8.66224 16.1211C8.7 16.1701 8.75312 16.2021 8.81397 16.2188C8.93513 16.2519 9.08852 16.2245 9.22351 16.1465L9.37786 16.0575L11.0783 17.068L7.39649 19.195C7.1609 19.331 6.86646 19.1609 6.86646 18.8887V17.5085L6.87099 17.506L6.87293 16.7439ZM14.0369 1.45505L13.966 7.93246L12.2426 6.93469L12.2658 4.25303C12.268 4.00969 12.0047 3.85636 11.7943 3.97843L9.09246 5.54546C8.81658 5.70541 8.64642 5.99973 8.64498 6.3186L8.62263 11.2592L7.26285 12.0465C7.14412 12.1152 7.01435 12.1562 6.88238 12.1697L6.89766 5.35446C6.8984 5.01648 7.07898 4.70431 7.37149 4.53526L8.03677 4.15106L13.3858 1.06088C13.6415 0.913189 13.9524 1.06108 14.0193 1.32763L14.0195 1.32831C14.031 1.36823 14.0374 1.4104 14.0369 1.45505Z" fill="#7763AE"/>
<path fill-rule="evenodd" clip-rule="evenodd" d="M14.4425 18.3501C14.4425 18.3501 14.4425 18.3501 14.4425 18.3501C14.4432 18.3492 14.4439 18.3484 14.4446 18.3476C14.4439 18.3484 14.4432 18.3493 14.4425 18.3501ZM14.651 18.2328L14.5699 18.2797V18.2784L14.5698 18.2785L14.4856 18.3259C14.5225 18.2712 14.5464 18.2082 14.5618 18.1461C14.5663 18.1279 14.5701 18.1097 14.5733 18.0918L14.5735 18.0903L14.6878 11.262C14.6953 10.8214 14.4632 10.4115 14.0817 10.1911L8.8008 7.13199L8.80479 6.37481C8.80639 6.06806 8.97031 5.78516 9.23556 5.63142L9.47634 5.4917L15.9423 9.23548C16.2565 9.41696 16.3402 9.75521 16.3339 10.127V16.8705C16.3299 17.1149 16.1979 17.3392 15.9865 17.4614L14.6553 18.2304L14.651 18.2328Z" fill="#32C9D3"/>
<path fill-rule="evenodd" clip-rule="evenodd" d="M3.23677 6.28485L4.72361 7.1431L4.71862 7.23642L2.95806 8.2531L2.99342 6.29548C3.0616 6.24786 3.15476 6.2375 3.23677 6.28485Z" fill="#32C9D3"/>
<path fill-rule="evenodd" clip-rule="evenodd" d="M12.0901 11.4179L7.37546 14.1718L8.50632 13.5116L12.0901 11.4179ZM0.218896 10.0474L4.84065 7.35168L4.83594 9.38406L3.56647 10.1439L3.56633 10.144C3.36921 10.2579 3.36881 10.5426 3.56553 10.6573L6.28767 12.2422C6.59517 12.4213 6.97486 12.4218 7.28281 12.2436L10.3804 10.4522L12.0512 11.418L7.36559 14.1549C6.98406 14.3775 6.51256 14.3786 6.13007 14.1577L0.218822 10.744C0.106951 10.6795 0.0391729 10.5444 0.0340024 10.4043C0.0288506 10.2648 0.0859866 10.1242 0.218825 10.0475L0.218896 10.0474Z" fill="white"/>
<path d="M12.309 11.564L12.263 11.5317L7.34563 14.3681C6.97662 14.5817 6.522 14.582 6.15266 14.3693L0.27159 10.9829C0.232339 10.9595 0.0138857 10.8186 0 10.5805V12.472C0 12.7452 0.146291 12.9975 0.383222 13.1331L6.10652 16.4087C6.5045 16.6364 6.99356 16.6351 7.39012 16.4048L12.5951 13.3924L12.6041 12.1238C12.5978 11.9011 12.4816 11.6918 12.309 11.564Z" fill="#C6C6C6"/>
<path fill-rule="evenodd" clip-rule="evenodd" d="M12.5384 15.0072C12.5371 15.1587 12.4325 15.2736 12.303 15.3066L10.9902 14.5483L12.5506 13.6251L12.5384 15.0072Z" fill="#32C9D3"/>
<path fill-rule="evenodd" clip-rule="evenodd" d="M3.71588 10.1882L4.83529 9.5433V11.197L3.71492 10.5686C3.62773 10.5178 3.58706 10.4466 3.58721 10.3782C3.58735 10.3098 3.62838 10.2388 3.71588 10.1882Z" fill="#C6C6C6"/>
<path fill-rule="evenodd" clip-rule="evenodd" d="M1.47602 3.00939L1.52792 2.97982L2.88892 2.19429C3.15654 2.0398 3.48617 2.03969 3.75389 2.19419L5.56417 3.24321L5.30144 3.39483C5.01946 3.55762 4.84536 3.8584 4.8448 4.1842L4.84324 4.86155L1.73544 3.06582L1.73535 3.06577C1.6406 3.01162 1.54982 3.00205 1.47602 3.00939Z" fill="#32C9D3"/>
<path fill-rule="evenodd" clip-rule="evenodd" d="M6.79005 19.2124C6.78545 19.2066 6.78084 19.2005 6.77628 19.194C6.78084 19.2005 6.78544 19.2066 6.79004 19.2124C6.79004 19.2124 6.79004 19.2124 6.79005 19.2124ZM6.58875 19.1181L6.69519 19.1796L5.18446 18.3068L6.58875 19.1181ZM6.72867 12.1821C6.72868 12.1821 6.72868 12.1821 6.72868 12.1821L6.73749 5.33876L6.72867 12.1821ZM6.06368 16.5457L4.95531 15.9114L4.95136 17.8681C4.95104 18.0421 5.04367 18.2031 5.19425 18.2899L6.70498 19.1626L6.70507 19.1627L6.74916 19.1885C6.70597 19.1193 6.66996 19.0138 6.67639 18.8566L6.6764 18.8562L6.68134 16.7178C6.46788 16.7128 6.25542 16.6554 6.06368 16.5457ZM11.1754 0.147141L11.1755 0.147104C11.5152 -0.0491173 11.9337 -0.0490005 12.2733 0.14725L13.4784 0.843475L13.4786 0.843611L13.5453 0.883363C13.4977 0.877621 13.4534 0.879757 13.4153 0.885298C13.3746 0.891222 13.3407 0.901057 13.3169 0.90944C13.305 0.913635 13.2956 0.917479 13.2892 0.92031C13.2859 0.921726 13.2834 0.92289 13.2816 0.92372L13.2796 0.924704L13.279 0.924989L13.2788 0.925106L13.2783 0.925353L7.804 4.07382L7.27092 4.38041C6.92881 4.57808 6.71793 4.94353 6.71792 5.33876L6.70914 12.1611C6.56984 12.1498 6.4325 12.1077 6.30754 12.035L4.99792 11.2724L5.01474 4.26097C5.01527 3.94913 5.18192 3.66124 5.45182 3.50543L11.1754 0.147141ZM13.2876 0.942566L13.2788 0.925106C13.2788 0.925111 13.2787 0.925126 13.2876 0.942566Z" fill="#442B8C"/>
<path fill-rule="evenodd" clip-rule="evenodd" d="M4.85058 7.04655L3.21526 6.10499C3.05202 6.01072 2.84788 6.12739 2.84603 6.31592L2.82236 8.36038L1.04898 9.38457L1.09555 3.58313C1.1007 3.26168 1.44904 3.06411 1.7273 3.22473L4.85547 5.02815L4.85058 7.04655Z" fill="#74DBE1"/>
<path fill-rule="evenodd" clip-rule="evenodd" d="M14.1527 7.99683L14.1632 6.19928L15.6147 7.06774C15.6002 7.14833 15.5526 7.22353 15.4717 7.2702L14.1527 7.99683Z" fill="#C6C6C6"/>
<path fill-rule="evenodd" clip-rule="evenodd" d="M15.5999 6.83277L14.1467 5.99207L14.1692 3.94614L18.9419 6.73103C19.2293 6.89873 19.2285 7.31434 18.9408 7.48111L18.9407 7.48116L18.8178 7.55218C18.7394 7.59742 18.6275 7.66205 18.4933 7.73959C18.2247 7.89467 17.8666 8.10143 17.5083 8.3081C17.15 8.51477 16.7916 8.72135 16.5225 8.87611C16.3879 8.95349 16.2756 9.0179 16.1969 9.06288C16.1575 9.08537 16.1266 9.10299 16.1054 9.11494C16.0956 9.12048 16.0879 9.12478 16.0825 9.12777L14.3508 8.12815L15.5994 7.41247C15.8226 7.28393 15.8229 6.96186 15.5999 6.83277Z" fill="white"/>
<path fill-rule="evenodd" clip-rule="evenodd" d="M12.6604 11.7105C12.5966 11.5778 12.4934 11.4647 12.3612 11.3885L8.73946 9.27895L8.74785 7.2663L12.7534 9.57435L14.0034 10.3086C14.3447 10.5088 14.5513 10.8761 14.5452 11.2703L14.5228 12.6313L14.4366 18.0695C14.4315 18.3926 14.0793 18.591 13.7985 18.4291L8.93956 15.6272L10.7336 14.5915L12.2116 15.4431C12.4316 15.5699 12.707 15.4132 12.709 15.1602L12.7336 12.0369C12.7337 12.0239 12.7335 12.0109 12.7329 11.9979C12.7296 11.8972 12.7039 11.7993 12.6604 11.7105Z" fill="#74DBE1"/>
<path fill-rule="evenodd" clip-rule="evenodd" d="M19.2203 7.49084C19.2295 7.47614 19.2375 7.46102 19.2445 7.44547L19.2543 9.22631C19.2543 9.50647 19.098 9.67315 18.8926 9.79072L16.4699 11.1772V10.0954C16.4748 9.7974 16.4129 9.47012 16.2242 9.26559L19.0129 7.67233L19.0131 7.67225C19.1088 7.61972 19.1766 7.56083 19.2203 7.49084Z" fill="#C6C6C6"/>
<path fill-rule="evenodd" clip-rule="evenodd" d="M12.0259 6.81432L10.2901 5.80919L10.2959 5.0342L11.8142 4.15355C11.8971 4.10552 11.9891 4.10614 12.0653 4.14078L12.0259 6.81432Z" fill="#442B8C"/>
<path fill-rule="evenodd" clip-rule="evenodd" d="M9.12298 16.0422C9.04757 16.0908 8.94946 16.1309 8.85006 16.108C8.78152 16.0922 8.74934 16.0293 8.73497 15.9623C8.72793 15.9295 8.72564 15.8976 8.72514 15.8738C8.72489 15.8619 8.72508 15.8521 8.72534 15.8453L8.72535 15.845L8.89096 15.7476L9.2298 15.9569C9.22509 15.9615 9.21945 15.9668 9.21295 15.9727C9.19133 15.9924 9.16036 16.0181 9.12298 16.0422Z" fill="#442B8C"/>
</svg>
